#!OML:ASF E:/inclinewalkrobotboard/Project1/Captureday1/Session1/subject1.ASF
:FULLY-SPECIFIED
:DEGREES
338
root 0 0 0 -10.616140207365467 -38.498872947534835 -1.7859987897134202
lowerback -1.2228305954075456 -1.283613501788184 0.9785469437145498
upperback -2.933899545500936 -1.3461653238632794 0.33375226382061063
thorax -2.345280724693742 -0.6531642728025111 0.11378878850605119
lowerneck -15.3430834434443 -1.7309780405191122 -7.081324312466739
upperneck -0.276821572832306 -2.174069369085557 4.968356303790138
head 2.9284688972706023 -0.8117273615766019 2.500191388187727
rclavicle -1.0964779562176706E-14 -2.0968565994328934E-17
rhumerus 2.929256183011371 -12.255026048806867 -67.42071480603337
rradius 18.27366359814574
rwrist 57.90398893215534
rhand -7.397234171835791 21.746966710307966
rfingers 7.125019999999913
rthumb 18.49573298735431 -7.952420900475079
lclavicle -1.0240535505368434E-14 4.293508299637148E-15
lhumerus -30.054652921441814 0.7898240203399496 81.07820025690778
lradius 27.791594582936916
lwrist -40.65740204134988
lhand -7.49848966022537 14.583041690276824
lfingers 7.039765484662649
lthumb 18.07172516401773 50.80847122341805
rfemur 0.4318103027540019 8.074498352263324 36.00287731453158
rtibia 24.692487254207666
rfoot -15.724531255103866 -5.049807540743775
rtoes 12.602572371503951
lfemur 20.41747797386791 -3.246645096151389 -24.93722429949879
ltibia 32.32837394160951
lfoot -3.0526544614916276 -12.013972607177912
ltoes -17.58449163322667
339
root 0 0 0 -11.102476302140825 -38.28873713070803 -1.9255174124756027
lowerback -1.6168438337073194 -1.2261731199191035 1.0595301666294321
upperback -3.02198815428823 -1.247296132793387 0.2859782029191892
thorax -2.2253017832978377 -0.6026237008871405 0.01100294589866313
lowerneck -15.214870887792745 -1.7480192967604453 -7.049434778323822
upperneck -0.41848005200935035 -2.2146391307072326 4.852769121655607
head 2.8770332366916445 -0.8324343636556477 2.4540485459453096
rclavicle -1.1077530754820054E-14 -9.214399974492925E-18
rhumerus 3.091844469312101 -12.193121661286641 -67.32710444791566
rradius 18.17723156977013
rwrist 57.89343294061652
rhand -7.358100099583098 21.724524596896487
rfingers 7.125019999999913
rthumb 18.53233410773656 -7.975058641302084
lclavicle -1.0687098247491063E-14 4.232624909668147E-15
lhumerus -30.125393505405036 1.0893837150756056 80.91930448478942
lradius 27.518403889212728
lwrist -40.68943311963102
lhand -7.2842021002399475 14.557020823197231
lfingers 7.0398219512931925
lthumb 18.27848576189969 49.4805775324567
rfemur 1.0710639304617864 8.17208836977523 36.18777383720032
rtibia 24.518508301739764
rfoot -16.368199370866094 -5.115746672494643
rtoes 12.182631826302083
lfemur 19.99183378793944 -2.9137047434680223 -24.16643877434966
ltibia 35.80902368681914
lfoot -1.5484557627465119 -12.809610780790958
ltoes -17.580902119501197
340
root 0 0 0 -11.750491015807475 -38.29974428811439 -2.0751508605301803
lowerback -2.0397234528131065 -1.1467547209169011 1.1674653314987498
upperback -3.111534074979209 -1.1167995213306519 0.22916353447353977
thorax -2.0915255772455597 -0.5363647377503717 -0.11951145814933317
lowerneck -15.059368588393426 -1.765895804068912 -6.998570456058954
upperneck -0.583145655322177 -2.2618101621375377 4.750896373686846
head 2.815486680062162 -0.8564151032281222 2.4095951654252197
rclavicle -1.119507958984945E-14 4.265694074786365E-18
rhumerus 3.260061660911325 -12.108038495002608 -67.23615527418572
rradius 18.06342497395015
rwrist 57.886103559272954
rhand -7.312985121208351 21.69897328842227
rfingers 7.125019999999914
rthumb 18.574546069377746 -8.000767846638531
lclavicle -1.1100289054821014E-14 4.188904654490162E-15
lhumerus -30.173311941597746 1.391632974070113 80.75396120787526
lradius 27.278663807271244
lwrist -40.7355372240451
lhand -7.081338253361824 14.527059764469247
lfingers 7.039872542957037
lthumb 18.474104652911485 48.32663851675822
rfemur 1.8944488703744682 8.278383391261983 36.4015529791697
rtibia 24.348269004578576
rfoot -17.054007260326635 -5.156319143351195
rtoes 11.624143602625859
lfemur 18.98967253929535 -2.5497104895568263 -23.241641160888136
ltibia 39.36448043128239
lfoot 0.22232321872411198 -13.672451889631645
ltoes -17.41164763614174
341
root 0 0 0 -12.551721666820814 -38.519512873826685 -2.187294796332712
lowerback -2.434435736555276 -1.0471281899831637 1.3213952882409141
upperback -3.1802297102615094 -0.9573962017071892 0.16891258829762057
thorax -1.9512954165174472 -0.45602579587792774 -0.2825951728030048
lowerneck -14.849624028424497 -1.762547797844578 -6.90525825207588
upperneck -0.759074017843421 -2.2845361555733588 4.660841630703553
head 2.7389173113657925 -0.8682469989169472 2.3649342177207258
rclavicle -1.130260186375841E-14 1.7447307430598E-17
rhumerus 3.4124509519065245 -11.995538191275093 -67.16045619982965
rradius 17.939127901507007
rwrist 57.883528605760304
rhand -7.264818242086374 21.67067189221325
rfingers 7.125019999999914
rthumb 18.619592059793845 -8.029161715762328
lclavicle -1.1404366755784048E-14 4.156607979713772E-15
lhumerus -30.200720244176573 1.6844975774413093 80.58881069976862
lradius 27.06750735707901
lwrist -40.80149689466067
lhand -6.890297568654321 14.498529405334143
lfingers 7.0399173774612445
lthumb 18.657982255274757 47.38325423083094
rfemur 2.9053161227184283 8.390891066107761 36.62933768378458
rtibia 24.203924836178853
rfoot -17.72577247107622 -5.1575884147569
rtoes 10.9289894946275
lfemur 17.104665415351377 -2.1627886146380866 -22.12222185754636
ltibia 42.794867289059475
lfoot 2.3318439022940964 -14.61273183614254
ltoes -17.01023410237702
